# Blender v2.92.0 OBJ File: 'Scene.blend'
# www.blender.org
mtllib floor.mtl
o Cube
v -3.428571 -2.571429 2.857144
v -3.428571 -2.571429 -2.142857
v -3.428572 3.428571 -2.142857
v 2.571429 -2.571428 2.857144
v 2.571429 -2.571428 -2.142857
v 2.571428 3.428572 2.857144
v 2.571428 3.428572 -2.142857
vt 0.500001 -3.044670
vt 4.044670 -3.044669
vt 4.044670 0.500000
vt 0.500000 0.500000
vt -3.044670 0.500000
vt -3.044669 -3.044670
vt 0.500000 4.044670
vt -3.044670 4.044670
vn 1.0000 0.0000 0.0000
vn 0.0000 0.0000 -1.0000
vn 0.0000 -1.0000 0.0000
usemtl Checkerboard
s off
f 7/1/1 6/2/1 4/3/1 5/4/1
f 5/4/2 2/5/2 3/6/2 7/1/2
f 5/4/3 4/7/3 1/8/3 2/5/3
